%TF.GenerationSoftware,KiCad,Pcbnew,10.0.3*%
%TF.CreationDate,2026-06-01T17:27:37+02:00*%
%TF.ProjectId,Z80_MBC,5a38305f-4d42-4432-9e6b-696361645f70,1.10*%
%TF.SameCoordinates,Original*%
%TF.FileFunction,Soldermask,Bot*%
%TF.FilePolarity,Negative*%
%FSLAX46Y46*%
G04 Gerber Fmt 4.6, Leading zero omitted, Abs format (unit mm)*
G04 Created by KiCad (PCBNEW 10.0.3) date 2026-06-01 17:27:37*
%MOMM*%
%LPD*%
G01*
G04 APERTURE LIST*
G04 Aperture macros list*
%AMRoundRect*
0 Rectangle with rounded corners*
0 $1 Rounding radius*
0 $2 $3 $4 $5 $6 $7 $8 $9 X,Y pos of 4 corners*
0 Add a 4 corners polygon primitive as box body*
4,1,4,$2,$3,$4,$5,$6,$7,$8,$9,$2,$3,0*
0 Add four circle primitives for the rounded corners*
1,1,$1+$1,$2,$3*
1,1,$1+$1,$4,$5*
1,1,$1+$1,$6,$7*
1,1,$1+$1,$8,$9*
0 Add four rect primitives between the rounded corners*
20,1,$1+$1,$2,$3,$4,$5,0*
20,1,$1+$1,$4,$5,$6,$7,0*
20,1,$1+$1,$6,$7,$8,$9,0*
20,1,$1+$1,$8,$9,$2,$3,0*%
%AMFreePoly0*
4,1,23,0.500000,-0.750000,0.000000,-0.750000,0.000000,-0.745722,-0.065263,-0.745722,-0.191342,-0.711940,-0.304381,-0.646677,-0.396677,-0.554381,-0.461940,-0.441342,-0.495722,-0.315263,-0.495722,-0.250000,-0.500000,-0.250000,-0.500000,0.250000,-0.495722,0.250000,-0.495722,0.315263,-0.461940,0.441342,-0.396677,0.554381,-0.304381,0.646677,-0.191342,0.711940,-0.065263,0.745722,0.000000,0.745722,
0.000000,0.750000,0.500000,0.750000,0.500000,-0.750000,0.500000,-0.750000,$1*%
%AMFreePoly1*
4,1,23,0.000000,0.745722,0.065263,0.745722,0.191342,0.711940,0.304381,0.646677,0.396677,0.554381,0.461940,0.441342,0.495722,0.315263,0.495722,0.250000,0.500000,0.250000,0.500000,-0.250000,0.495722,-0.250000,0.495722,-0.315263,0.461940,-0.441342,0.396677,-0.554381,0.304381,-0.646677,0.191342,-0.711940,0.065263,-0.745722,0.000000,-0.745722,0.000000,-0.750000,-0.500000,-0.750000,
-0.500000,0.750000,0.000000,0.750000,0.000000,0.745722,0.000000,0.745722,$1*%
G04 Aperture macros list end*
%ADD10C,3.200000*%
%ADD11R,1.700000X1.700000*%
%ADD12O,1.700000X1.700000*%
%ADD13C,1.700000*%
%ADD14RoundRect,0.250000X-0.950000X-0.550000X0.950000X-0.550000X0.950000X0.550000X-0.950000X0.550000X0*%
%ADD15O,2.400000X1.600000*%
%ADD16C,2.100000*%
%ADD17R,1.600000X1.600000*%
%ADD18C,1.600000*%
%ADD19RoundRect,0.218750X0.481250X-0.881250X0.481250X0.881250X-0.481250X0.881250X-0.481250X-0.881250X0*%
%ADD20C,1.500000*%
%ADD21RoundRect,0.250000X0.550000X-0.550000X0.550000X0.550000X-0.550000X0.550000X-0.550000X-0.550000X0*%
%ADD22RoundRect,0.250000X0.600000X-0.600000X0.600000X0.600000X-0.600000X0.600000X-0.600000X-0.600000X0*%
%ADD23RoundRect,0.250000X0.550000X-0.950000X0.550000X0.950000X-0.550000X0.950000X-0.550000X-0.950000X0*%
%ADD24O,1.600000X2.400000*%
%ADD25RoundRect,0.102000X2.000000X2.000000X-2.000000X2.000000X-2.000000X-2.000000X2.000000X-2.000000X0*%
%ADD26C,4.204000*%
%ADD27RoundRect,0.250000X-1.550000X0.650000X-1.550000X-0.650000X1.550000X-0.650000X1.550000X0.650000X0*%
%ADD28O,3.600000X1.800000*%
%ADD29C,1.400000*%
%ADD30FreePoly0,90.000000*%
%ADD31FreePoly1,90.000000*%
G04 APERTURE END LIST*
%TO.C,JP8*%
G36*
X81698400Y-123192400D02*
G01*
X83198400Y-123192400D01*
X83198400Y-123492400D01*
X81698400Y-123492400D01*
X81698400Y-123192400D01*
G37*
%TO.C,JP7*%
G36*
X79158400Y-121465200D02*
G01*
X80658400Y-121465200D01*
X80658400Y-121765200D01*
X79158400Y-121765200D01*
X79158400Y-121465200D01*
G37*
%TD*%
D10*
%TO.C,H3*%
X72000000Y-134000000D03*
%TD*%
%TO.C,H6*%
X68000000Y-42000000D03*
%TD*%
D11*
%TO.C,U15*%
X86360000Y-27940000D03*
D12*
X86360000Y-30480000D03*
X86360000Y-33020000D03*
X86360000Y-35560000D03*
X86360000Y-38100000D03*
X86360000Y-40640000D03*
D11*
X106680000Y-27940000D03*
D12*
X106680000Y-30480000D03*
X106680000Y-33020000D03*
X106680000Y-35560000D03*
X106680000Y-38100000D03*
X106680000Y-40640000D03*
%TD*%
D11*
%TO.C,J11*%
X96139000Y-120650000D03*
D13*
X96139000Y-118110000D03*
X96139000Y-115570000D03*
%TD*%
D14*
%TO.C,U13*%
X132720000Y-81285000D03*
D15*
X132720000Y-83825000D03*
X132720000Y-86365000D03*
X132720000Y-88905000D03*
X132720000Y-91445000D03*
X132720000Y-93985000D03*
X132720000Y-96525000D03*
X132720000Y-99065000D03*
X132720000Y-101605000D03*
X132720000Y-104145000D03*
X132720000Y-106685000D03*
X132720000Y-109225000D03*
X132720000Y-111765000D03*
X132720000Y-114305000D03*
X132720000Y-116845000D03*
X132720000Y-119385000D03*
X147960000Y-119385000D03*
X147960000Y-116845000D03*
X147960000Y-114305000D03*
X147960000Y-111765000D03*
X147960000Y-109225000D03*
X147960000Y-106685000D03*
X147960000Y-104145000D03*
X147960000Y-101605000D03*
X147960000Y-99065000D03*
X147960000Y-96525000D03*
X147960000Y-93985000D03*
X147960000Y-91445000D03*
X147960000Y-88905000D03*
X147960000Y-86365000D03*
X147960000Y-83825000D03*
X147960000Y-81285000D03*
%TD*%
D11*
%TO.C,J14*%
X152273000Y-52070000D03*
D13*
X149733000Y-52070000D03*
%TD*%
D10*
%TO.C,H5*%
X169000000Y-26000000D03*
%TD*%
D11*
%TO.C,J10*%
X114295000Y-125730000D03*
D13*
X116835000Y-125730000D03*
%TD*%
D14*
%TO.C,U9*%
X83820000Y-71120000D03*
D15*
X83820000Y-73660000D03*
X83820000Y-76200000D03*
X83820000Y-78740000D03*
X83820000Y-81280000D03*
X83820000Y-83820000D03*
X83820000Y-86360000D03*
X91440000Y-86360000D03*
X91440000Y-83820000D03*
X91440000Y-81280000D03*
X91440000Y-78740000D03*
X91440000Y-76200000D03*
X91440000Y-73660000D03*
X91440000Y-71120000D03*
%TD*%
D11*
%TO.C,J9*%
X90170000Y-92075000D03*
D13*
X92710000Y-92075000D03*
%TD*%
D16*
%TO.C,H9*%
X97000000Y-81500000D03*
%TD*%
D17*
%TO.C,RN2*%
X165100000Y-57785000D03*
D18*
X165100000Y-60325000D03*
X165100000Y-62865000D03*
X165100000Y-65405000D03*
X165100000Y-67945000D03*
X165100000Y-70485000D03*
X165100000Y-73025000D03*
X165100000Y-75565000D03*
X165100000Y-78105000D03*
%TD*%
D11*
%TO.C,J3*%
X65404293Y-50800000D03*
D13*
X65404293Y-48260000D03*
X67944293Y-50800000D03*
X67944293Y-48260000D03*
X70484293Y-50800000D03*
X70484293Y-48260000D03*
%TD*%
D19*
%TO.C,U14*%
X32577000Y-67310000D03*
D18*
X35117000Y-67310000D03*
X37657000Y-67310000D03*
X40197000Y-67310000D03*
X42737000Y-67310000D03*
X45277000Y-67310000D03*
X47817000Y-67310000D03*
X50357000Y-67310000D03*
X52897000Y-67310000D03*
X54802000Y-66040000D03*
X54802000Y-63500000D03*
X54802000Y-60960000D03*
X54802000Y-58420000D03*
X54802000Y-55880000D03*
D20*
X54802000Y-53340000D03*
X52897000Y-52070000D03*
D18*
X50357000Y-52070000D03*
X47817000Y-52070000D03*
X45277000Y-52070000D03*
X42737000Y-52070000D03*
X40197000Y-52070000D03*
X37657000Y-52070000D03*
X35117000Y-52070000D03*
X32577000Y-52070000D03*
%TD*%
D21*
%TO.C,U20*%
X123825000Y-47625000D03*
D18*
X126365000Y-47625000D03*
X128905000Y-47625000D03*
X131445000Y-47625000D03*
X133985000Y-47625000D03*
X136525000Y-47625000D03*
X139065000Y-47625000D03*
X141605000Y-47625000D03*
X144145000Y-47625000D03*
X146685000Y-47625000D03*
X149225000Y-47625000D03*
X151765000Y-47625000D03*
X154305000Y-47625000D03*
X156845000Y-47625000D03*
X156845000Y-40005000D03*
X154305000Y-40005000D03*
X151765000Y-40005000D03*
X149225000Y-40005000D03*
X146685000Y-40005000D03*
X144145000Y-40005000D03*
X141605000Y-40005000D03*
X139065000Y-40005000D03*
X136525000Y-40005000D03*
X133985000Y-40005000D03*
X131445000Y-40005000D03*
X128905000Y-40005000D03*
X126365000Y-40005000D03*
X123825000Y-40005000D03*
%TD*%
D16*
%TO.C,H8*%
X97000000Y-52500000D03*
%TD*%
%TO.C,H10*%
X127000000Y-106000000D03*
%TD*%
D14*
%TO.C,U10*%
X105415000Y-71125000D03*
D15*
X105415000Y-73665000D03*
X105415000Y-76205000D03*
X105415000Y-78745000D03*
X105415000Y-81285000D03*
X105415000Y-83825000D03*
X105415000Y-86365000D03*
X105415000Y-88905000D03*
X105415000Y-91445000D03*
X105415000Y-93985000D03*
X105415000Y-96525000D03*
X105415000Y-99065000D03*
X105415000Y-101605000D03*
X105415000Y-104145000D03*
X105415000Y-106685000D03*
X105415000Y-109225000D03*
X105415000Y-111765000D03*
X105415000Y-114305000D03*
X105415000Y-116845000D03*
X105415000Y-119385000D03*
X120655000Y-119385000D03*
X120655000Y-116845000D03*
X120655000Y-114305000D03*
X120655000Y-111765000D03*
X120655000Y-109225000D03*
X120655000Y-106685000D03*
X120655000Y-104145000D03*
X120655000Y-101605000D03*
X120655000Y-99065000D03*
X120655000Y-96525000D03*
X120655000Y-93985000D03*
X120655000Y-91445000D03*
X120655000Y-88905000D03*
X120655000Y-86365000D03*
X120655000Y-83825000D03*
X120655000Y-81285000D03*
X120655000Y-78745000D03*
X120655000Y-76205000D03*
X120655000Y-73665000D03*
X120655000Y-71125000D03*
%TD*%
D22*
%TO.C,J8*%
X133985000Y-29845000D03*
D13*
X133985000Y-27305000D03*
X136525000Y-29845000D03*
X136525000Y-27305000D03*
X139065000Y-29845000D03*
X139065000Y-27305000D03*
X141605000Y-29845000D03*
X141605000Y-27305000D03*
X144145000Y-29845000D03*
X144145000Y-27305000D03*
X146685000Y-29845000D03*
X146685000Y-27305000D03*
X149225000Y-29845000D03*
X149225000Y-27305000D03*
X151765000Y-29845000D03*
X151765000Y-27305000D03*
X154305000Y-29845000D03*
X154305000Y-27305000D03*
X156845000Y-29845000D03*
X156845000Y-27305000D03*
%TD*%
D11*
%TO.C,J13*%
X155194000Y-103881000D03*
D13*
X155194000Y-106421000D03*
%TD*%
D23*
%TO.C,U7*%
X132715000Y-74295000D03*
D24*
X135255000Y-74295000D03*
X137795000Y-74295000D03*
X140335000Y-74295000D03*
X142875000Y-74295000D03*
X145415000Y-74295000D03*
X147955000Y-74295000D03*
X147955000Y-66675000D03*
X145415000Y-66675000D03*
X142875000Y-66675000D03*
X140335000Y-66675000D03*
X137795000Y-66675000D03*
X135255000Y-66675000D03*
X132715000Y-66675000D03*
%TD*%
D10*
%TO.C,H4*%
X162000000Y-134000000D03*
%TD*%
D25*
%TO.C,C4*%
X41910000Y-115570000D03*
D26*
X31750000Y-115570000D03*
%TD*%
D11*
%TO.C,J12*%
X57790000Y-123190000D03*
D13*
X55250000Y-123190000D03*
%TD*%
D11*
%TO.C,J4*%
X168910000Y-35560000D03*
D13*
X168910000Y-38100000D03*
X168910000Y-40640000D03*
X168910000Y-43180000D03*
X168910000Y-45720000D03*
X168910000Y-48260000D03*
X168910000Y-50800000D03*
X168910000Y-53340000D03*
X168910000Y-55880000D03*
X168910000Y-58420000D03*
X168910000Y-60960000D03*
X168910000Y-63500000D03*
X168910000Y-66040000D03*
X168910000Y-68580000D03*
X168910000Y-71120000D03*
X168910000Y-73660000D03*
X168910000Y-76200000D03*
X168910000Y-78740000D03*
X168910000Y-81280000D03*
X168910000Y-83820000D03*
X168910000Y-86360000D03*
X168910000Y-88900000D03*
X168910000Y-91440000D03*
X168910000Y-93980000D03*
X168910000Y-96520000D03*
X168910000Y-99060000D03*
X168910000Y-101600000D03*
X168910000Y-104140000D03*
X168910000Y-106680000D03*
X168910000Y-109220000D03*
X168910000Y-111760000D03*
X168910000Y-114300000D03*
X168910000Y-116840000D03*
X168910000Y-119380000D03*
X168910000Y-121920000D03*
X168910000Y-124460000D03*
X168910000Y-127000000D03*
X168910000Y-129540000D03*
X168910000Y-132080000D03*
X168910000Y-134620000D03*
%TD*%
D14*
%TO.C,U1*%
X83820000Y-104140000D03*
D15*
X83820000Y-106680000D03*
X83820000Y-109220000D03*
X83820000Y-111760000D03*
X83820000Y-114300000D03*
X83820000Y-116840000D03*
X83820000Y-119380000D03*
X91440000Y-119380000D03*
X91440000Y-116840000D03*
X91440000Y-114300000D03*
X91440000Y-111760000D03*
X91440000Y-109220000D03*
X91440000Y-106680000D03*
X91440000Y-104140000D03*
%TD*%
D16*
%TO.C,H7*%
X127500000Y-52500000D03*
%TD*%
D17*
%TO.C,RN3*%
X165100000Y-88900000D03*
D18*
X165100000Y-91440000D03*
X165100000Y-93980000D03*
X165100000Y-96520000D03*
X165100000Y-99060000D03*
%TD*%
D27*
%TO.C,J2*%
X27976900Y-38104200D03*
D28*
X27976900Y-41914200D03*
%TD*%
D10*
%TO.C,H1*%
X26000000Y-26000000D03*
%TD*%
%TO.C,H2*%
X26000000Y-134000000D03*
%TD*%
D29*
%TO.C,JP2*%
X52090000Y-46355000D03*
X54630000Y-46355000D03*
%TD*%
D17*
%TO.C,RN1*%
X165100000Y-33020000D03*
D18*
X165100000Y-35560000D03*
X165100000Y-38100000D03*
X165100000Y-40640000D03*
X165100000Y-43180000D03*
X165100000Y-45720000D03*
X165100000Y-48260000D03*
X165100000Y-50800000D03*
X165100000Y-53340000D03*
%TD*%
D23*
%TO.C,U8*%
X103505000Y-64135000D03*
D24*
X106045000Y-64135000D03*
X108585000Y-64135000D03*
X111125000Y-64135000D03*
X113665000Y-64135000D03*
X116205000Y-64135000D03*
X118745000Y-64135000D03*
X121285000Y-64135000D03*
X121285000Y-56515000D03*
X118745000Y-56515000D03*
X116205000Y-56515000D03*
X113665000Y-56515000D03*
X111125000Y-56515000D03*
X108585000Y-56515000D03*
X106045000Y-56515000D03*
X103505000Y-56515000D03*
%TD*%
D14*
%TO.C,U6*%
X62865000Y-71125000D03*
D15*
X62865000Y-73665000D03*
X62865000Y-76205000D03*
X62865000Y-78745000D03*
X62865000Y-81285000D03*
X62865000Y-83825000D03*
X62865000Y-86365000D03*
X62865000Y-88905000D03*
X62865000Y-91445000D03*
X62865000Y-93985000D03*
X62865000Y-96525000D03*
X62865000Y-99065000D03*
X62865000Y-101605000D03*
X62865000Y-104145000D03*
X62865000Y-106685000D03*
X62865000Y-109225000D03*
X62865000Y-111765000D03*
X62865000Y-114305000D03*
X62865000Y-116845000D03*
X62865000Y-119385000D03*
X78105000Y-119385000D03*
X78105000Y-116845000D03*
X78105000Y-114305000D03*
X78105000Y-111765000D03*
X78105000Y-109225000D03*
X78105000Y-106685000D03*
X78105000Y-104145000D03*
X78105000Y-101605000D03*
X78105000Y-99065000D03*
X78105000Y-96525000D03*
X78105000Y-93985000D03*
X78105000Y-91445000D03*
X78105000Y-88905000D03*
X78105000Y-86365000D03*
X78105000Y-83825000D03*
X78105000Y-81285000D03*
X78105000Y-78745000D03*
X78105000Y-76205000D03*
X78105000Y-73665000D03*
X78105000Y-71125000D03*
%TD*%
D30*
%TO.C,JP8*%
X82448400Y-123992400D03*
D31*
X82448400Y-122692400D03*
%TD*%
D30*
%TO.C,JP7*%
X79908400Y-122265200D03*
D31*
X79908400Y-120965200D03*
%TD*%
M02*
