M48
; DRILL file KiCad 10.0.3 date 2026-06-01T17:27:18
; FORMAT={-:-/ absolute / metric / decimal}
; #@! TF.CreationDate,2026-06-01T17:27:18+02:00
; #@! TF.GenerationSoftware,Kicad,Pcbnew,10.0.3
; #@! TF.FileFunction,Plated,1,2,PTH
FMAT,2
METRIC
; #@! TA.AperFunction,Plated,PTH,ViaDrill
T1C0.406
; #@! TA.AperFunction,Plated,PTH,ViaDrill
T2C0.508
; #@! TA.AperFunction,Plated,PTH,ViaDrill
T3C0.711
; #@! TA.AperFunction,Plated,PTH,ViaDrill
T4C0.762
; #@! TA.AperFunction,Plated,PTH,ComponentDrill
T5C0.800
; #@! TA.AperFunction,Plated,PTH,ComponentDrill
T6C1.000
; #@! TA.AperFunction,Plated,PTH,ComponentDrill
T7C1.200
; #@! TA.AperFunction,Plated,PTH,ComponentDrill
T8C1.500
%
G90
G05
T1
X36.83Y-76.2
X37.846Y-26.162
X38.655Y-76.679
X41.351Y-77.8
X44.12Y-80.594
X47.145Y-76.876
X51.562Y-37.821
X53.67Y-82.626
X55.905Y-115.468
X56.49Y-91.44
X56.921Y-49.225
X58.852Y-108.763
X59.588Y-94.361
X62.128Y-55.651
X64.973Y-118.11
X65.761Y-119.99
X66.65Y-99.009
X69.367Y-121.539
X69.494Y-78.867
X69.571Y-31.14
X69.571Y-102.87
X70.231Y-71.45
X70.333Y-115.595
X71.298Y-119.558
X71.349Y-70.206
X71.399Y-113.386
X72.136Y-127.991
X72.263Y-91.445
X72.517Y-55.626
X73.05Y-111.912
X73.431Y-127.457
X73.944Y-116.845
X74.905Y-114.305
X75.311Y-56.667
X77.673Y-121.539
X79.197Y-122.555
X79.286Y-124.473
X80.772Y-60.985
X80.848Y-58.445
X80.924Y-69.875
X80.924Y-83.845
X81.001Y-51.156
X81.382Y-100.457
X82.264Y-50.374
X84.607Y-50.924
X84.709Y-47.422
X84.811Y-53.543
X85.395Y-63.17
X86.131Y-48.997
X86.614Y-122.047
X86.665Y-86.436
X87.706Y-76.2
X87.833Y-55.372
X87.884Y-82.474
X88.443Y-79.858
X89.002Y-78.74
X89.332Y-59.715
X89.433Y-126.797
X90.17Y-100.025
X92.354Y-40.945
X92.659Y-98.222
X94.209Y-90.043
X94.259Y-102.392
X94.386Y-105.74
X97.13Y-104.75
X98.425Y-109.779
X98.831Y-111.76
X101.143Y-100.66
X101.829Y-94.513
X101.854Y-109.753
X102.006Y-122.899
X102.362Y-99.339
X103.175Y-101.321
X103.2Y-105.41
X107.391Y-132.004
X107.56Y-95.288
X108.28Y-68.174
X109.144Y-118.72
X109.169Y-116.992
X110.261Y-112.878
X110.82Y-51.791
X110.82Y-110.583
X110.82Y-115.494
X111.252Y-47.904
X111.684Y-108.941
X112.25Y-40.5
X112.268Y-105.156
X112.598Y-102.006
X112.878Y-67.386
X112.954Y-121.793
X113.36Y-104.14
X113.436Y-129.057
X113.817Y-66.548
X113.881Y-107.048
X114.351Y-122.86
X114.986Y-72.771
X115.341Y-34.671
X115.773Y-75.387
X115.799Y-99.035
X116.053Y-109.677
X116.688Y-78.715
X117.5Y-103.937
X117.627Y-88.824
X117.678Y-28.346
X117.78Y-98.476
X118.11Y-68.555
X118.161Y-107.188
X118.212Y-102.667
X119.253Y-38.227
X119.837Y-126.416
X119.888Y-28.346
X119.964Y-61.392
X120.091Y-68.529
X122.53Y-126.721
X122.682Y-27.026
X122.936Y-105.41
X123.266Y-122.758
X123.469Y-82.779
X123.673Y-58.242
X124.333Y-80.01
X124.993Y-58.268
X125.222Y-77.724
X125.527Y-74.955
X126.06Y-60.071
X126.136Y-71.59
X126.314Y-58.471
X127.864Y-59.792
X127.965Y-117.221
X128.321Y-61.112
X129.692Y-110.49
X130.048Y-61.417
X130.658Y-128.245
X130.81Y-125.527
X131.47Y-55.702
X135.915Y-125.197
X136.728Y-104.369
X137.363Y-86.487
X140.335Y-135.433
X141.427Y-105.334
X142.9Y-81.28
X143.815Y-55.575
X144.018Y-99.238
X144.094Y-79.273
X145.186Y-55.601
X145.313Y-101.854
X146.41Y-76.937
X147.472Y-137.973
X148.488Y-136.449
X149.428Y-135.255
X150.825Y-121.691
X151.079Y-124.892
X151.232Y-64.11
X152.679Y-63.678
X153.518Y-64.846
X155.245Y-64.592
X155.372Y-129.286
X155.753Y-72.136
X156.439Y-124.943
X156.921Y-70.739
X157.201Y-118.11
X157.81Y-107.899
X158.648Y-100.711
X159.639Y-76.911
X159.766Y-101.752
X160.807Y-99.974
X162.077Y-123.139
X162.789Y-120.65
X163.22Y-81.864
X163.22Y-84.912
X163.551Y-118.186
X164.211Y-116.713
X165.151Y-119.329
X165.851Y-114.895
X166.802Y-111.074
T2
X31.064Y-82.626
X50.851Y-41.3
X65.964Y-23.063
X78.613Y-39.319
X90.399Y-46.888
X91.389Y-96.525
X92.278Y-60.782
X93.802Y-46.863
X96.926Y-96.525
X112.852Y-27.178
X113.563Y-44.298
X118.821Y-27.178
X119.583Y-50.521
X141.961Y-129.794
X146.482Y-128.956
X152.959Y-128.93
X156.972Y-136.525
X158.877Y-125.857
T3
X28.829Y-86.792
X43.002Y-75.565
X45.72Y-31.545
X57.15Y-75.667
X62.84Y-28.27
X67.691Y-96.469
X69.297Y-28.372
X71.755Y-28.372
X78.054Y-27.838
X82.601Y-24.003
X94.437Y-26.518
X98.247Y-94.513
X132.588Y-21.263
X143.51Y-77.47
T4
X74.066Y-40.78
X74.092Y-44.882
X159.868Y-74.168
T5
X32.577Y-52.07
X32.577Y-67.31
X35.117Y-52.07
X35.117Y-67.31
X37.657Y-52.07
X37.657Y-67.31
X40.197Y-52.07
X40.197Y-67.31
X42.737Y-52.07
X42.737Y-67.31
X45.277Y-52.07
X45.277Y-67.31
X47.817Y-52.07
X47.817Y-67.31
X50.357Y-52.07
X50.357Y-67.31
X52.09Y-46.355
X52.897Y-52.07
X52.897Y-67.31
X54.63Y-46.355
X54.802Y-53.34
X54.802Y-55.88
X54.802Y-58.42
X54.802Y-60.96
X54.802Y-63.5
X54.802Y-66.04
X62.865Y-71.125
X62.865Y-73.665
X62.865Y-76.205
X62.865Y-78.745
X62.865Y-81.285
X62.865Y-83.825
X62.865Y-86.365
X62.865Y-88.905
X62.865Y-91.445
X62.865Y-93.985
X62.865Y-96.525
X62.865Y-99.065
X62.865Y-101.605
X62.865Y-104.145
X62.865Y-106.685
X62.865Y-109.225
X62.865Y-111.765
X62.865Y-114.305
X62.865Y-116.845
X62.865Y-119.385
X78.105Y-71.125
X78.105Y-73.665
X78.105Y-76.205
X78.105Y-78.745
X78.105Y-81.285
X78.105Y-83.825
X78.105Y-86.365
X78.105Y-88.905
X78.105Y-91.445
X78.105Y-93.985
X78.105Y-96.525
X78.105Y-99.065
X78.105Y-101.605
X78.105Y-104.145
X78.105Y-106.685
X78.105Y-109.225
X78.105Y-111.765
X78.105Y-114.305
X78.105Y-116.845
X78.105Y-119.385
X83.82Y-71.12
X83.82Y-73.66
X83.82Y-76.2
X83.82Y-78.74
X83.82Y-81.28
X83.82Y-83.82
X83.82Y-86.36
X83.82Y-104.14
X83.82Y-106.68
X83.82Y-109.22
X83.82Y-111.76
X83.82Y-114.3
X83.82Y-116.84
X83.82Y-119.38
X91.44Y-71.12
X91.44Y-73.66
X91.44Y-76.2
X91.44Y-78.74
X91.44Y-81.28
X91.44Y-83.82
X91.44Y-86.36
X91.44Y-104.14
X91.44Y-106.68
X91.44Y-109.22
X91.44Y-111.76
X91.44Y-114.3
X91.44Y-116.84
X91.44Y-119.38
X103.505Y-56.515
X103.505Y-64.135
X105.415Y-71.125
X105.415Y-73.665
X105.415Y-76.205
X105.415Y-78.745
X105.415Y-81.285
X105.415Y-83.825
X105.415Y-86.365
X105.415Y-88.905
X105.415Y-91.445
X105.415Y-93.985
X105.415Y-96.525
X105.415Y-99.065
X105.415Y-101.605
X105.415Y-104.145
X105.415Y-106.685
X105.415Y-109.225
X105.415Y-111.765
X105.415Y-114.305
X105.415Y-116.845
X105.415Y-119.385
X106.045Y-56.515
X106.045Y-64.135
X108.585Y-56.515
X108.585Y-64.135
X111.125Y-56.515
X111.125Y-64.135
X113.665Y-56.515
X113.665Y-64.135
X116.205Y-56.515
X116.205Y-64.135
X118.745Y-56.515
X118.745Y-64.135
X120.655Y-71.125
X120.655Y-73.665
X120.655Y-76.205
X120.655Y-78.745
X120.655Y-81.285
X120.655Y-83.825
X120.655Y-86.365
X120.655Y-88.905
X120.655Y-91.445
X120.655Y-93.985
X120.655Y-96.525
X120.655Y-99.065
X120.655Y-101.605
X120.655Y-104.145
X120.655Y-106.685
X120.655Y-109.225
X120.655Y-111.765
X120.655Y-114.305
X120.655Y-116.845
X120.655Y-119.385
X121.285Y-56.515
X121.285Y-64.135
X123.825Y-40.005
X123.825Y-47.625
X126.365Y-40.005
X126.365Y-47.625
X128.905Y-40.005
X128.905Y-47.625
X131.445Y-40.005
X131.445Y-47.625
X132.715Y-66.675
X132.715Y-74.295
X132.72Y-81.285
X132.72Y-83.825
X132.72Y-86.365
X132.72Y-88.905
X132.72Y-91.445
X132.72Y-93.985
X132.72Y-96.525
X132.72Y-99.065
X132.72Y-101.605
X132.72Y-104.145
X132.72Y-106.685
X132.72Y-109.225
X132.72Y-111.765
X132.72Y-114.305
X132.72Y-116.845
X132.72Y-119.385
X133.985Y-40.005
X133.985Y-47.625
X135.255Y-66.675
X135.255Y-74.295
X136.525Y-40.005
X136.525Y-47.625
X137.795Y-66.675
X137.795Y-74.295
X139.065Y-40.005
X139.065Y-47.625
X140.335Y-66.675
X140.335Y-74.295
X141.605Y-40.005
X141.605Y-47.625
X142.875Y-66.675
X142.875Y-74.295
X144.145Y-40.005
X144.145Y-47.625
X145.415Y-66.675
X145.415Y-74.295
X146.685Y-40.005
X146.685Y-47.625
X147.955Y-66.675
X147.955Y-74.295
X147.96Y-81.285
X147.96Y-83.825
X147.96Y-86.365
X147.96Y-88.905
X147.96Y-91.445
X147.96Y-93.985
X147.96Y-96.525
X147.96Y-99.065
X147.96Y-101.605
X147.96Y-104.145
X147.96Y-106.685
X147.96Y-109.225
X147.96Y-111.765
X147.96Y-114.305
X147.96Y-116.845
X147.96Y-119.385
X149.225Y-40.005
X149.225Y-47.625
X151.765Y-40.005
X151.765Y-47.625
X154.305Y-40.005
X154.305Y-47.625
X156.845Y-40.005
X156.845Y-47.625
X165.1Y-33.02
X165.1Y-35.56
X165.1Y-38.1
X165.1Y-40.64
X165.1Y-43.18
X165.1Y-45.72
X165.1Y-48.26
X165.1Y-50.8
X165.1Y-53.34
X165.1Y-57.785
X165.1Y-60.325
X165.1Y-62.865
X165.1Y-65.405
X165.1Y-67.945
X165.1Y-70.485
X165.1Y-73.025
X165.1Y-75.565
X165.1Y-78.105
X165.1Y-88.9
X165.1Y-91.44
X165.1Y-93.98
X165.1Y-96.52
X165.1Y-99.06
T6
X55.25Y-123.19
X57.79Y-123.19
X65.404Y-48.26
X65.404Y-50.8
X67.944Y-48.26
X67.944Y-50.8
X70.484Y-48.26
X70.484Y-50.8
X86.36Y-27.94
X86.36Y-30.48
X86.36Y-33.02
X86.36Y-35.56
X86.36Y-38.1
X86.36Y-40.64
X90.17Y-92.075
X92.71Y-92.075
X96.139Y-115.57
X96.139Y-118.11
X96.139Y-120.65
X106.68Y-27.94
X106.68Y-30.48
X106.68Y-33.02
X106.68Y-35.56
X106.68Y-38.1
X106.68Y-40.64
X114.295Y-125.73
X116.835Y-125.73
X133.985Y-27.305
X133.985Y-29.845
X136.525Y-27.305
X136.525Y-29.845
X139.065Y-27.305
X139.065Y-29.845
X141.605Y-27.305
X141.605Y-29.845
X144.145Y-27.305
X144.145Y-29.845
X146.685Y-27.305
X146.685Y-29.845
X149.225Y-27.305
X149.225Y-29.845
X149.733Y-52.07
X151.765Y-27.305
X151.765Y-29.845
X152.273Y-52.07
X154.305Y-27.305
X154.305Y-29.845
X155.194Y-103.881
X155.194Y-106.421
X156.845Y-27.305
X156.845Y-29.845
X168.91Y-35.56
X168.91Y-38.1
X168.91Y-40.64
X168.91Y-43.18
X168.91Y-45.72
X168.91Y-48.26
X168.91Y-50.8
X168.91Y-53.34
X168.91Y-55.88
X168.91Y-58.42
X168.91Y-60.96
X168.91Y-63.5
X168.91Y-66.04
X168.91Y-68.58
X168.91Y-71.12
X168.91Y-73.66
X168.91Y-76.2
X168.91Y-78.74
X168.91Y-81.28
X168.91Y-83.82
X168.91Y-86.36
X168.91Y-88.9
X168.91Y-91.44
X168.91Y-93.98
X168.91Y-96.52
X168.91Y-99.06
X168.91Y-101.6
X168.91Y-104.14
X168.91Y-106.68
X168.91Y-109.22
X168.91Y-111.76
X168.91Y-114.3
X168.91Y-116.84
X168.91Y-119.38
X168.91Y-121.92
X168.91Y-124.46
X168.91Y-127.0
X168.91Y-129.54
X168.91Y-132.08
X168.91Y-134.62
T7
X27.977Y-38.104
X27.977Y-41.914
T8
X31.75Y-115.57
X41.91Y-115.57
M30
