M48
; DRILL file {KiCad 9.0.5} date 2026-01-06T13:42:13+0100
; FORMAT={-:-/ absolute / inch / decimal}
; #@! TF.CreationDate,2026-01-06T13:42:13+01:00
; #@! TF.GenerationSoftware,Kicad,Pcbnew,9.0.5
; #@! TF.FileFunction,Plated,1,2,PTH
FMAT,2
INCH
; #@! TA.AperFunction,Plated,PTH,ViaDrill
T1C0.0160
; #@! TA.AperFunction,Plated,PTH,ViaDrill
T2C0.0200
; #@! TA.AperFunction,Plated,PTH,ViaDrill
T3C0.0280
; #@! TA.AperFunction,Plated,PTH,ViaDrill
T4C0.0300
; #@! TA.AperFunction,Plated,PTH,ComponentDrill
T5C0.0315
; #@! TA.AperFunction,Plated,PTH,ComponentDrill
T6C0.0394
; #@! TA.AperFunction,Plated,PTH,ComponentDrill
T7C0.0472
; #@! TA.AperFunction,Plated,PTH,ComponentDrill
T8C0.0591
%
G90
G05
T1
X1.45Y-3.0
X1.49Y-1.03
X1.5219Y-3.0189
X1.628Y-3.063
X1.737Y-3.173
X1.8561Y-3.0266
X2.03Y-1.489
X2.113Y-3.253
X2.201Y-4.546
X2.224Y-3.6
X2.241Y-1.938
X2.317Y-4.282
X2.346Y-3.715
X2.446Y-2.191
X2.558Y-4.65
X2.589Y-4.724
X2.624Y-3.898
X2.731Y-4.785
X2.736Y-3.105
X2.739Y-1.226
X2.739Y-4.05
X2.765Y-2.813
X2.769Y-4.551
X2.807Y-4.707
X2.809Y-2.764
X2.811Y-4.464
X2.84Y-5.039
X2.845Y-3.6002
X2.855Y-2.19
X2.876Y-4.406
X2.891Y-5.018
X2.9112Y-4.6002
X2.949Y-4.5002
X2.965Y-2.231
X3.058Y-4.785
X3.118Y-4.825
X3.1215Y-4.9005
X3.18Y-2.401
X3.183Y-2.301
X3.186Y-2.751
X3.186Y-3.301
X3.189Y-2.014
X3.204Y-3.955
X3.2388Y-1.9832
X3.331Y-2.0049
X3.335Y-1.867
X3.339Y-2.108
X3.362Y-2.487
X3.391Y-1.929
X3.41Y-4.805
X3.412Y-3.403
X3.453Y-3.0
X3.458Y-2.18
X3.46Y-3.247
X3.482Y-3.144
X3.504Y-3.1
X3.517Y-2.351
X3.521Y-4.992
X3.55Y-3.938
X3.636Y-1.612
X3.648Y-3.867
X3.709Y-3.545
X3.711Y-4.0312
X3.716Y-4.163
X3.824Y-4.124
X3.875Y-4.322
X3.891Y-4.4
X3.982Y-3.963
X4.009Y-3.721
X4.01Y-4.321
X4.016Y-4.8385
X4.03Y-3.911
X4.062Y-3.989
X4.063Y-4.15
X4.228Y-5.197
X4.2347Y-3.7515
X4.263Y-2.684
X4.297Y-4.674
X4.298Y-4.606
X4.341Y-4.444
X4.363Y-2.039
X4.363Y-4.3537
X4.363Y-4.547
X4.38Y-1.886
X4.397Y-4.289
X4.42Y-4.14
X4.433Y-4.016
X4.444Y-2.653
X4.447Y-4.795
X4.463Y-4.1
X4.466Y-5.081
X4.481Y-2.62
X4.4835Y-4.2145
X4.502Y-4.837
X4.527Y-2.865
X4.541Y-1.365
X4.558Y-2.968
X4.559Y-3.899
X4.569Y-4.318
X4.594Y-3.099
X4.626Y-4.092
X4.631Y-3.497
X4.633Y-1.116
X4.637Y-3.877
X4.65Y-2.699
X4.652Y-4.22
X4.654Y-4.042
X4.695Y-1.505
X4.718Y-4.977
X4.72Y-1.116
X4.723Y-2.417
X4.728Y-2.698
X4.824Y-4.989
X4.83Y-1.064
X4.84Y-4.15
X4.853Y-4.833
X4.861Y-3.259
X4.869Y-2.293
X4.895Y-3.15
X4.921Y-2.294
X4.93Y-3.06
X4.942Y-2.951
X4.963Y-2.365
X4.966Y-2.8185
X4.973Y-2.302
X5.034Y-2.354
X5.038Y-4.615
X5.052Y-2.406
X5.106Y-4.35
X5.12Y-2.418
X5.144Y-5.049
X5.15Y-4.942
X5.176Y-2.193
X5.351Y-4.929
X5.383Y-4.109
X5.408Y-3.405
X5.525Y-5.332
X5.568Y-4.147
X5.626Y-3.2
X5.662Y-2.188
X5.67Y-3.907
X5.673Y-3.121
X5.716Y-2.189
X5.721Y-4.01
X5.7642Y-3.029
X5.806Y-5.432
X5.846Y-5.372
X5.883Y-5.325
X5.938Y-4.791
X5.948Y-4.917
X5.954Y-2.524
X6.011Y-2.507
X6.044Y-2.553
X6.112Y-2.543
X6.117Y-5.09
X6.132Y-2.84
X6.159Y-4.919
X6.178Y-2.785
X6.189Y-4.65
X6.213Y-4.248
X6.246Y-3.965
X6.285Y-3.028
X6.29Y-4.006
X6.331Y-3.936
X6.381Y-4.848
X6.409Y-4.75
X6.426Y-3.223
X6.426Y-3.343
X6.439Y-4.653
X6.465Y-4.595
X6.502Y-4.698
X6.5296Y-4.5234
X6.567Y-4.373
T2
X1.223Y-3.253
X2.002Y-1.626
X2.597Y-0.908
X3.095Y-1.548
X3.559Y-1.846
X3.598Y-3.8002
X3.633Y-2.393
X3.693Y-1.845
X3.816Y-3.8002
X4.443Y-1.07
X4.471Y-1.744
X4.678Y-1.07
X4.708Y-1.989
X5.589Y-5.11
X5.767Y-5.077
X6.022Y-5.076
X6.18Y-5.375
X6.255Y-4.955
T3
X1.135Y-3.417
X1.693Y-2.975
X1.8Y-1.2419
X2.25Y-2.979
X2.474Y-1.113
X2.665Y-3.798
X2.7282Y-1.117
X2.825Y-1.117
X3.073Y-1.096
X3.252Y-0.945
X3.718Y-1.044
X3.868Y-3.721
X5.22Y-0.8371
X5.65Y-3.05
T4
X2.916Y-1.6055
X2.917Y-1.767
X6.294Y-2.92
T5
X1.2826Y-2.05
X1.2826Y-2.65
X1.3826Y-2.05
X1.3826Y-2.65
X1.4826Y-2.05
X1.4826Y-2.65
X1.5826Y-2.05
X1.5826Y-2.65
X1.6826Y-2.05
X1.6826Y-2.65
X1.7826Y-2.05
X1.7826Y-2.65
X1.8826Y-2.05
X1.8826Y-2.65
X1.9826Y-2.05
X1.9826Y-2.65
X2.0508Y-1.825
X2.0826Y-2.05
X2.0826Y-2.65
X2.1508Y-1.825
X2.1576Y-2.1
X2.1576Y-2.2
X2.1576Y-2.3
X2.1576Y-2.4
X2.1576Y-2.5
X2.1576Y-2.6
X2.475Y-2.8002
X2.475Y-2.9002
X2.475Y-3.0002
X2.475Y-3.1002
X2.475Y-3.2002
X2.475Y-3.3002
X2.475Y-3.4002
X2.475Y-3.5002
X2.475Y-3.6002
X2.475Y-3.7002
X2.475Y-3.8002
X2.475Y-3.9002
X2.475Y-4.0002
X2.475Y-4.1002
X2.475Y-4.2002
X2.475Y-4.3002
X2.475Y-4.4002
X2.475Y-4.5002
X2.475Y-4.6002
X2.475Y-4.7002
X3.075Y-2.8002
X3.075Y-2.9002
X3.075Y-3.0002
X3.075Y-3.1002
X3.075Y-3.2002
X3.075Y-3.3002
X3.075Y-3.4002
X3.075Y-3.5002
X3.075Y-3.6002
X3.075Y-3.7002
X3.075Y-3.8002
X3.075Y-3.9002
X3.075Y-4.0002
X3.075Y-4.1002
X3.075Y-4.2002
X3.075Y-4.3002
X3.075Y-4.4002
X3.075Y-4.5002
X3.075Y-4.6002
X3.075Y-4.7002
X3.3Y-2.8
X3.3Y-2.9
X3.3Y-3.0
X3.3Y-3.1
X3.3Y-3.2
X3.3Y-3.3
X3.3Y-3.4
X3.3Y-4.1
X3.3Y-4.2
X3.3Y-4.3
X3.3Y-4.4
X3.3Y-4.5
X3.3Y-4.6
X3.3Y-4.7
X3.6Y-2.8
X3.6Y-2.9
X3.6Y-3.0
X3.6Y-3.1
X3.6Y-3.2
X3.6Y-3.3
X3.6Y-3.4
X3.6Y-4.1
X3.6Y-4.2
X3.6Y-4.3
X3.6Y-4.4
X3.6Y-4.5
X3.6Y-4.6
X3.6Y-4.7
X4.075Y-2.225
X4.075Y-2.525
X4.1502Y-2.8002
X4.1502Y-2.9002
X4.1502Y-3.0002
X4.1502Y-3.1002
X4.1502Y-3.2002
X4.1502Y-3.3002
X4.1502Y-3.4002
X4.1502Y-3.5002
X4.1502Y-3.6002
X4.1502Y-3.7002
X4.1502Y-3.8002
X4.1502Y-3.9002
X4.1502Y-4.0002
X4.1502Y-4.1002
X4.1502Y-4.2002
X4.1502Y-4.3002
X4.1502Y-4.4002
X4.1502Y-4.5002
X4.1502Y-4.6002
X4.1502Y-4.7002
X4.175Y-2.225
X4.175Y-2.525
X4.275Y-2.225
X4.275Y-2.525
X4.375Y-2.225
X4.375Y-2.525
X4.475Y-2.225
X4.475Y-2.525
X4.575Y-2.225
X4.575Y-2.525
X4.675Y-2.225
X4.675Y-2.525
X4.7502Y-2.8002
X4.7502Y-2.9002
X4.7502Y-3.0002
X4.7502Y-3.1002
X4.7502Y-3.2002
X4.7502Y-3.3002
X4.7502Y-3.4002
X4.7502Y-3.5002
X4.7502Y-3.6002
X4.7502Y-3.7002
X4.7502Y-3.8002
X4.7502Y-3.9002
X4.7502Y-4.0002
X4.7502Y-4.1002
X4.7502Y-4.2002
X4.7502Y-4.3002
X4.7502Y-4.4002
X4.7502Y-4.5002
X4.7502Y-4.6002
X4.7502Y-4.7002
X4.775Y-2.225
X4.775Y-2.525
X4.875Y-1.575
X4.875Y-1.875
X4.975Y-1.575
X4.975Y-1.875
X5.075Y-1.575
X5.075Y-1.875
X5.175Y-1.575
X5.175Y-1.875
X5.225Y-2.625
X5.225Y-2.925
X5.2252Y-3.2002
X5.2252Y-3.3002
X5.2252Y-3.4002
X5.2252Y-3.5002
X5.2252Y-3.6002
X5.2252Y-3.7002
X5.2252Y-3.8002
X5.2252Y-3.9002
X5.2252Y-4.0002
X5.2252Y-4.1002
X5.2252Y-4.2002
X5.2252Y-4.3002
X5.2252Y-4.4002
X5.2252Y-4.5002
X5.2252Y-4.6002
X5.2252Y-4.7002
X5.275Y-1.575
X5.275Y-1.875
X5.325Y-2.625
X5.325Y-2.925
X5.375Y-1.575
X5.375Y-1.875
X5.425Y-2.625
X5.425Y-2.925
X5.475Y-1.575
X5.475Y-1.875
X5.525Y-2.625
X5.525Y-2.925
X5.575Y-1.575
X5.575Y-1.875
X5.625Y-2.625
X5.625Y-2.925
X5.675Y-1.575
X5.675Y-1.875
X5.725Y-2.625
X5.725Y-2.925
X5.775Y-1.575
X5.775Y-1.875
X5.825Y-2.625
X5.825Y-2.925
X5.8252Y-3.2002
X5.8252Y-3.3002
X5.8252Y-3.4002
X5.8252Y-3.5002
X5.8252Y-3.6002
X5.8252Y-3.7002
X5.8252Y-3.8002
X5.8252Y-3.9002
X5.8252Y-4.0002
X5.8252Y-4.1002
X5.8252Y-4.2002
X5.8252Y-4.3002
X5.8252Y-4.4002
X5.8252Y-4.5002
X5.8252Y-4.6002
X5.8252Y-4.7002
X5.875Y-1.575
X5.875Y-1.875
X5.975Y-1.575
X5.975Y-1.875
X6.075Y-1.575
X6.075Y-1.875
X6.175Y-1.575
X6.175Y-1.875
X6.5Y-1.3
X6.5Y-1.4
X6.5Y-1.5
X6.5Y-1.6
X6.5Y-1.7
X6.5Y-1.8
X6.5Y-1.9
X6.5Y-2.0
X6.5Y-2.1
X6.5Y-2.275
X6.5Y-2.375
X6.5Y-2.475
X6.5Y-2.575
X6.5Y-2.675
X6.5Y-2.775
X6.5Y-2.875
X6.5Y-2.975
X6.5Y-3.075
X6.5Y-3.5
X6.5Y-3.6
X6.5Y-3.7
X6.5Y-3.8
X6.5Y-3.9
T6
X2.1752Y-4.85
X2.2752Y-4.85
X2.575Y-1.9
X2.575Y-2.0
X2.675Y-1.9
X2.675Y-2.0
X2.775Y-1.9
X2.775Y-2.0
X3.4Y-1.1
X3.4Y-1.2
X3.4Y-1.3
X3.4Y-1.4
X3.4Y-1.5
X3.4Y-1.6
X3.55Y-3.625
X3.65Y-3.625
X3.785Y-4.55
X3.785Y-4.65
X3.785Y-4.75
X4.2Y-1.1
X4.2Y-1.2
X4.2Y-1.3
X4.2Y-1.4
X4.2Y-1.5
X4.2Y-1.6
X4.4998Y-4.95
X4.5998Y-4.95
X5.275Y-1.075
X5.275Y-1.175
X5.375Y-1.075
X5.375Y-1.175
X5.475Y-1.075
X5.475Y-1.175
X5.575Y-1.075
X5.575Y-1.175
X5.675Y-1.075
X5.675Y-1.175
X5.775Y-1.075
X5.775Y-1.175
X5.875Y-1.075
X5.875Y-1.175
X5.895Y-2.05
X5.975Y-1.075
X5.975Y-1.175
X5.995Y-2.05
X6.075Y-1.075
X6.075Y-1.175
X6.11Y-4.0898
X6.11Y-4.1898
X6.175Y-1.075
X6.175Y-1.175
X6.65Y-1.4
X6.65Y-1.5
X6.65Y-1.6
X6.65Y-1.7
X6.65Y-1.8
X6.65Y-1.9
X6.65Y-2.0
X6.65Y-2.1
X6.65Y-2.2
X6.65Y-2.3
X6.65Y-2.4
X6.65Y-2.5
X6.65Y-2.6
X6.65Y-2.7
X6.65Y-2.8
X6.65Y-2.9
X6.65Y-3.0
X6.65Y-3.1
X6.65Y-3.2
X6.65Y-3.3
X6.65Y-3.4
X6.65Y-3.5
X6.65Y-3.6
X6.65Y-3.7
X6.65Y-3.8
X6.65Y-3.9
X6.65Y-4.0
X6.65Y-4.1
X6.65Y-4.2
X6.65Y-4.3
X6.65Y-4.4
X6.65Y-4.5
X6.65Y-4.6
X6.65Y-4.7
X6.65Y-4.8
X6.65Y-4.9
X6.65Y-5.0
X6.65Y-5.1
X6.65Y-5.2
X6.65Y-5.3
T7
X1.1015Y-1.5002
X1.1015Y-1.6502
T8
X1.25Y-4.55
X1.65Y-4.55
M30
